<svg id="Layer_1" data-name="Layer 1" xmlns="http://www.w3.org/2000/svg" viewBox="0 0 1080 1080"><defs><style>.cls-1{fill:red;}.cls-2{fill:#39b54a;}.cls-3{fill:#d9e021;}.cls-4{fill:none;stroke-width:12px;}.cls-4,.cls-5,.cls-6{stroke:#000;stroke-miterlimit:10;}.cls-6{fill:#fff;}</style></defs><title>non-acid</title><path class="cls-1" d="M788.16,300.24s125.39,53.38,215.53,212.27c72.47,127.73,65.57,255.37,65.57,255.37H767.45s1.78-55.56-26.83-107.23C712.46,609.76,667.11,579,667.11,579Z"/><path class="cls-2" d="M291.84,300.24S166.45,353.62,76.31,512.51C3.84,640.24,10.74,767.88,10.74,767.88H312.55s-1.78-55.56,26.83-107.23C367.54,609.76,412.89,579,412.89,579Z"/><path class="cls-3" d="M667.11,579S618.46,540.89,540,540.46C464.61,540,412.89,579,412.89,579l-121-278.74s103.53-61.7,248.07-61.7c152.59,0,248.25,61.7,248.25,61.7Z"/><path class="cls-4" d="M539.91,238.54c-292.35,0-529.35,237-529.35,529.34H312.61c0-125.6,101.82-227.42,227.42-227.42S767.45,642.28,767.45,767.88h301.81C1069.26,475.53,832.26,238.54,539.91,238.54Z"/><polygon class="cls-5" points="561.5 738.78 604.02 807.25 524.08 799.94 237.57 579.98 237.57 579.98 561.5 738.78"/><circle class="cls-6" cx="540" cy="767.24" r="19.87"/></svg>