<svg id="Layer_1" data-name="Layer 1" xmlns="http://www.w3.org/2000/svg" viewBox="0 0 1080 1080"><defs><style>.cls-1{fill:#492b17;}.cls-2{opacity:0.29;}.cls-3,.cls-5{fill:#331a0c;}.cls-4{opacity:0.14;}.cls-5{opacity:0.64;}.cls-6{fill:none;stroke:#000;stroke-miterlimit:10;stroke-width:12px;}</style></defs><title>normal</title><path class="cls-1" d="M746.59,685.06l7.47,26.59s9.61,36.1-35.63,74.7c-57.45,49-180.62,75-180.62,75S386.17,890.25,338.6,888.7s-126.11-13.43-163.34-23.58c0,0-159.58-53.15-159.49-148.8,0,0-5.61-13.1-3.29-41.24s17.38-35.08,35.29-49,85-20.25,106.71-21.09,151.41,1.17,175.94-16.79c65.88-48.21,232.52-16.32,295.45.72C717.62,613.79,746.59,685.06,746.59,685.06Z"/><path class="cls-1" d="M745.19,680.72l6.3-14.79S781.2,598.13,682.28,524c0,0-85.34-46.34-140.54-56.72S416,447.2,368.43,448.52s-96.57,1.9-133.85,11.87c0,0-149.72,9.87-215.1,123.45,0,0-14,28.79-11.78,56.94s6.37,11,24.22,25,84.89,20.66,106.6,21.6,151.42-.42,175.86,17.66c65.64,48.53,232.44,17.45,295.45.72C701.7,681.34,745.19,680.72,745.19,680.72Z"/><path class="cls-2" d="M751.49,665.93l-4.9,19.13s-12.83-57.7-116.48-92.87c0,0-160.12-56.62-296.24-5.77-33.05,23.68-229.53,6.43-273.37,32.17,0,0-47.32,15.64-48,56.49-.47-1.91-4.85-26.27-4.85-26.27C24,610.37,69.71,597.53,69.71,597.53,148.16,568,236.3,600.25,326.6,566.22,517.78,494.19,742,599.17,751.49,665.93Z"/><path class="cls-3" d="M371.7,877.27S253.86,879,195.55,683.33c-61.11-205.09,53-263.65,53-263.65S113,477.34,56.87,546.55c-33,40.78-108.25,171.65,57.34,284.13C241.4,917.07,371.7,877.27,371.7,877.27Z"/><path class="cls-4" d="M331.55,883s-112.62,7.94-170.93-187.76c-61.1-205.09,30.16-249.14,30.16-249.14S112.55,475.81,56.44,545c-33,40.77-108.25,171.65,57.34,284.12C241,915.55,331.55,883,331.55,883Z"/><path class="cls-5" d="M694.43,798.35s-68.54,19-186.25-147.7c-123.36-174.73-65.54-245.4-65.54-245.4s-73.35,73.24-86,144.32c-7.43,41.88,47.85,116.83,168.07,247.77C604.32,884,694.43,798.35,694.43,798.35Z"/><path class="cls-6" d="M15.68,715.94C104.84,1013.84,751.87,866,752,721.55"/><path class="cls-6" d="M15.77,716.32c-38.82-164.14,230-84.06,323-131.86C437.55,533.65,758.82,570.25,752,721.55"/><path class="cls-6" d="M12.48,675.08c-78.74-315.85,834-291.16,734.11,10"/><path class="cls-1" d="M1027.05,785.21l-7,26.71s-1.87,32.51-78.57,11.4a955.73,955.73,0,0,1-138.67-50.41s-102.19-47-142.39-72.56-86-46.88-112.91-74.55c0,0-164.1-93.42-165.91-185.32,0,0,1.8-14.14,18.06-37.2s32.75-21.39,55.22-24.26,83.49,25.78,102.63,36.11,129.85,78,160.09,75c81.19-8,208.6,104.2,254.19,150.88C1038.21,709.08,1027.05,785.21,1027.05,785.21Z"/><path class="cls-1" d="M1028.05,780.77l12.92-9.54s60-43.31,12.3-157.5c0,0-50-83.32-92.34-120.33s-98.15-81.24-139.81-104.3S737,341.63,699.78,331.26c0,0-134-67.64-247.88-3,0,0-26.62,17.7-39,43.06s-.07,12.7,8.21,33.83,62.67,61,80.9,72.83S632.67,554.59,644.58,582.6C676.53,657.79,836,715.84,898.76,733.48,990.27,759.18,1028.05,780.77,1028.05,780.77Z"/><path class="cls-2" d="M1041,771.23l-13.92,14S1045.24,729,973.76,646c0,0-109.26-130.21-252.3-155.63C681,493.93,520.45,379.15,469.63,379c0,0-48.7-10.59-70,24.25.57-1.88,9.13-25.11,9.13-25.11,33.6-24.77,79.47-12.61,79.47-12.61,82.56,14.45,142.16,87.07,237.2,103.68C926.65,504.4,1066.63,708.89,1041,771.23Z"/><path class="cls-3" d="M1013.21,819.4S938.74,851.84,665,691.11c-286.9-168.45-283.28-251-283.28-251S363,527.47,410,604.41c27.66,45.33,136.53,182.72,379.72,240.52C976.5,889.32,1013.21,819.4,1013.21,819.4Z"/><path class="cls-6" d="M381.69,440.1c-74.15,302,558.22,503.7,631.52,379.3"/><path class="cls-5" d="M451.9,328.23s-120.35,50.73,40,209.33C643.87,687.94,580.81,762,580.81,762s65.33,33.09,57.22-94.42c-7.37-115.88-59.43-205.27-115-262.3C440.88,321,451.9,328.23,451.9,328.23Z"/><path class="cls-6" d="M381.57,440.48C431.29,279.32,622.33,485,726.64,491.13c110.89,6.47,369.13,201.38,286.57,328.27"/><path class="cls-6" d="M399.63,403.28c92.21-312.18,866.08,173.28,627.42,381.93"/><path class="cls-4" d="M994,835.06S930.39,871.69,656.62,711C369.72,542.52,375.94,479,375.94,479s-15,47.22,31.93,124.16c27.66,45.32,136.52,182.72,379.71,240.51C974.38,888.06,994,835.06,994,835.06Z"/><path class="cls-1" d="M502.2,844.64,485,866.19s-14.88,28.95-76.43-21.52A957.45,957.45,0,0,1,302.2,742.22S227.84,657.7,201.44,618s-59.59-77.79-73-114c0,0-112.15-152.09-76.58-236.82,0,0,7.38-12.2,31.57-26.67s38.6-6.23,60.3.28,65.87,57.5,79.18,74.72S310,439.58,338.85,449.14c77.46,25.66,148.46,180,171.21,241.22C543.24,779.58,502.2,844.64,502.2,844.64Z"/><path class="cls-1" d="M504.91,841l15.67-3.47s72.34-15.22,75-139c0,0-12-96.5-35.66-147.52S503.14,436.9,474.41,398.89s-57.7-77.61-87.47-102.19c0,0-95.08-116.3-225.34-103.53,0,0-31.5,5.36-53.09,23.5s-5.2,11.58-6.19,34.26,32.58,81.21,44.44,99.45S235.15,473.54,234.68,504c-1.24,81.72,121,199.59,171.22,241.22C479.12,805.89,504.91,841,504.91,841Z"/><path class="cls-2" d="M520.58,837.51l-18.38,7.13s39.4-44,7.69-148.94c0,0-47.13-163.42-167.57-244.79-38.45-13.18-138.69-183.34-185.09-204.1,0,0-40.22-29.47-73.8-6.3C84.71,239,102,221.28,102,221.28c40.74-9,77.74,20.78,77.74,20.78,69.61,46.76,94.66,137.36,174.81,191.18C524.16,547.16,569.29,791,520.58,837.51Z"/><path class="cls-3" d="M475.7,870.25s-81.2-.62-266.32-258.81C15.37,340.87,52.12,266.88,52.12,266.88S-.32,339.15,11.43,428.56c6.93,52.67,50.78,222.5,249.65,374.17C413.83,919.23,475.7,870.25,475.7,870.25Z"/><path class="cls-6" d="M52.12,266.88C-138,512.77,358.32,954.16,475.7,870.25"/><path class="cls-6" d="M51.86,267.18c110.72-127.09,202,138.59,294.88,186.55,98.72,51,255.81,334.11,129,416.52"/><path class="cls-6" d="M83.43,240.51C294.15-7.32,804.83,750.94,502.2,844.64"/><path class="cls-4" d="M451.82,876.77s-73,7.61-258.12-250.58C-.3,355.62,31.11,300.09,31.11,300.09S-1.74,337.14,10,426.55c6.92,52.67,50.77,222.5,249.64,374.17C412.4,917.22,451.82,876.77,451.82,876.77Z"/></svg>