<svg id="Layer_1" data-name="Layer 1" xmlns="http://www.w3.org/2000/svg" viewBox="0 0 1080 1080"><defs><style>.cls-1{fill:#492b17;}.cls-2{opacity:0.29;}.cls-3{fill:#331a0c;}.cls-4{fill:none;stroke:#000;stroke-miterlimit:10;stroke-width:12px;}.cls-5{opacity:0.14;}</style></defs><title>not strong</title><path class="cls-1" d="M1002.83,860.15l-10.72,40.64s-2.86,49.48-119.79,17.36-211.44-76.74-211.44-76.74S505.07,769.84,443.78,731,312.69,659.64,271.64,617.53c0,0-250.21-142.19-253-282,0,0,2.75-21.53,27.53-56.62s49.94-32.55,84.21-36.92,127.29,39.24,156.46,54.95,198,118.72,244.1,114.16c123.78-12.23,318,158.58,387.55,229.63C1019.85,744.27,1002.83,860.15,1002.83,860.15Z"/><path class="cls-1" d="M1004.35,853.38,1024,838.86s91.42-65.92,18.76-239.7c0,0-76.3-126.81-140.79-183.14S752.36,292.38,688.84,257.29s-128.33-72.26-185-88c0,0-204.31-102.95-377.94-4.61,0,0-40.59,26.94-59.47,65.54s-.1,19.33,12.52,51.49,95.56,92.8,123.35,110.84S401.52,509.15,419.67,551.78C468.4,666.22,711.52,754.57,807.22,781.4,946.75,820.52,1004.35,853.38,1004.35,853.38Z"/><path class="cls-2" d="M1024,838.86l-21.21,21.29s27.73-85.59-81.26-211.93c0,0-166.58-198.17-384.67-236.86-61.72,5.47-306.49-169.23-384-169.4,0,0-74.24-16.12-106.73,36.9.87-2.86,13.93-38.21,13.93-38.21,51.23-37.71,121.17-19.19,121.17-19.19C307.18,243.45,398,354,543,379.25,849.74,432.77,1063.17,744,1024,838.86Z"/><path class="cls-3" d="M981.72,912.17S868.18,961.55,450.77,716.92c-437.44-256.36-431.92-382-431.92-382S-9.59,467.88,62,585c42.18,69,208.16,278.09,579,366C925.75,1018.58,981.72,912.17,981.72,912.17Z"/><path class="cls-4" d="M18.85,334.91C-94.2,794.55,870,1101.51,981.72,912.17"/><path class="cls-4" d="M18.67,335.48c75.81-245.27,367.09,67.81,526.12,77.08,169.07,9.86,562.82,306.5,436.93,499.61"/><path class="cls-4" d="M46.2,278.86c140.6-475.11,1320.5,263.73,956.63,581.29"/><path class="cls-5" d="M952.46,936s-97,55.75-514.43-188.88C.6,490.78,10.08,394.1,10.08,394.1s-22.9,71.87,48.68,189c42.18,69,208.16,278.09,579,366C922.52,1016.67,952.46,936,952.46,936Z"/></svg>