<svg id="Layer_1" data-name="Layer 1" xmlns="http://www.w3.org/2000/svg" viewBox="0 0 1080 1080"><defs><style>.cls-1{fill:#492b17;}.cls-2{opacity:0.29;}.cls-3,.cls-6{fill:#331a0c;}.cls-4{opacity:0.14;}.cls-5{fill:none;stroke:#000;stroke-miterlimit:10;stroke-width:12px;}.cls-6{opacity:0.64;}</style></defs><title>strong</title><path class="cls-1" d="M1026.45,266.62,1046.78,282S1074,303.25,1062.14,357c-15.07,68.2-91.44,156.15-91.44,156.15S874.89,619.05,838.93,644.47,738.38,705,705.25,718.33c0,0-147.38,50-200.64-20.53,0,0-11.45-6.51-25.42-28.53s-6.73-35.54-1.27-55.79,51.43-62.38,67-75.13,112.37-83.7,120.46-110.63c21.74-72.3,162.48-141.88,218.42-164.48C965.34,230.3,1026.45,266.62,1026.45,266.62Z"/><path class="cls-1" d="M1023,264.2l-3.6-14.41s-15.88-66.53-130.21-65.89c0,0-88.8,13.53-135.31,36.71s-104,55.43-138.34,83-70.2,55.34-92.15,83.5c0,0-105,90.89-89.9,211.06,0,0,5.75,29,23.05,48.52s10.83,4.53,31.79,4.87,74.16-32.2,90.71-43.63S690.53,523,718.65,522.7c75.49-.91,181.24-117,218.41-164.48C991.25,288.94,1023,264.2,1023,264.2Z"/><path class="cls-2" d="M1019.4,249.79l7.05,16.83s-41.64-35.34-137.72-3.35c0,0-149.72,47.72-221.81,161.19-11.19,35.91-165.79,132.93-183.79,176.38,0,0-26.19,37.95-3.94,68.43-1.4-1.15-18.23-16.64-18.23-16.64-9.33-37.47,17.22-72.45,17.22-72.45,41.42-65.57,124.45-91,172.11-166.53C751.2,253.82,975.18,205.92,1019.4,249.79Z"/><path class="cls-3" d="M873.49,648.32s-108.35,12.46-180-162.07C618.39,303.36,718.14,239,718.14,239S598.55,304.5,553.23,373.28C526.54,413.8,469.3,541,632.11,629.17,757.16,696.89,873.49,648.32,873.49,648.32Z"/><path class="cls-4" d="M837,659.28s-103,17.65-174.62-156.87c-75.1-182.9,4.9-231.78,4.9-231.78S598,305.14,552.69,373.92C526,414.44,468.77,541.65,631.57,629.81,756.62,697.53,837,659.28,837,659.28Z"/><path class="cls-5" d="M504.33,697.57C736.2,867.21,1131.23,397,1050.77,290.48"/><path class="cls-5" d="M504.61,697.8C384.46,598.59,627.47,507.43,669.42,420.31c44.58-92.62,302-245.09,381.35-129.83"/><path class="cls-5" d="M479.19,669.27C245,480.6,932.26-11,1026.45,266.62"/><path class="cls-1" d="M607.9,795l-18.07,18s-16.67,25-68.08-27.62a886.13,886.13,0,0,1-87.26-105S374.8,595.15,354.6,556,197.68,360.17,189.08,325.52c0,0,22.6-32.88,64-107,0,0,8-10.43,31.78-21.22s36.13-1.75,55.42,6.46S395,263.32,405.43,280.5s67.35,122.87,92.9,134.61c68.6,31.53,118,180.56,132.66,239.08C652.33,739.52,607.9,795,607.9,795Z"/><path class="cls-1" d="M610.77,791.93l14.77-1.57s68.09-6.52,83.28-119.83c0,0-1.1-89.82-17.63-139.1s-40.51-110.64-63-148.49-45.09-77.19-69.93-102.82c0,0-75.49-116.55-196.6-118.25,0,0-29.52,1.68-51.24,16.12s-6,10.09-9.22,30.81,21.62,77.9,30.65,95.87,68.63,122.17,65.07,150.06c-9.54,74.89,90.75,195.69,132.66,239.08C590.66,757.06,610.77,791.93,610.77,791.93Z"/><path class="cls-2" d="M625.54,790.36,607.9,795s40.76-36.34,22.38-135.93c0,0-26.54-154.88-128.94-242-34-16-108.7-182.59-149.24-206.42,0,0-34-31.2-67.22-13.38,1.33-1.23,19-15.75,19-15.75,38.4-4,69.36,27.08,69.36,27.08,59.21,50.1,72.94,135.85,141.12,193.51C658.68,524.19,675.11,752.64,625.54,790.36Z"/><path class="cls-3" d="M539.37,823s-73.05-17.67-185.56-288.91C235.9,249.87,284.57,191.06,284.57,191.06S212.44,243,204.22,325.89c-4.84,48.83,8.65,212.87,156,391.19C473.31,854.06,539.37,823,539.37,823Z"/><path class="cls-5" d="M253.37,218.27C53.27,424.43,464.32,880.74,580.9,815.8"/><path class="cls-5" d="M253.1,218.51c114.89-105.26,171.53,148,252,201.63,85.55,57,200.92,333.07,75.79,395.66"/><path class="cls-5" d="M284.88,197.29C504.15-8.53,895.86,740.16,607.9,795"/><path class="cls-4" d="M516.47,823.87s-67.37-8.53-179.89-279.78c-117.91-284.25-77.92-327.58-77.92-327.58s-37.4,26.4-45.61,109.3C208.21,374.65,212,536.65,359.3,715,472.45,852,516.47,823.87,516.47,823.87Z"/><path class="cls-1" d="M692.63,718l6.91,24.56s8.9,33.35-33,69C613.4,856.87,499.42,880.9,499.42,880.9s-140.33,26.67-184.35,25.23-116.71-12.41-151.16-21.78c0,0-147.68-49.1-147.6-137.46,0,0-5.19-12.1-3-38.09s16.08-32.41,32.65-45.25,78.66-18.7,98.76-19.47,140.11,1.07,162.82-15.52c61-44.53,215.18-15.07,273.41.67C665.82,652.18,692.63,718,692.63,718Z"/><path class="cls-1" d="M691.34,714l5.82-13.66s27.5-62.64-64-131.12c0,0-79-42.81-130-52.4s-116.35-18.54-160.38-17.32-89.38,1.76-123.87,11c0,0-138.56,9.12-199.06,114,0,0-12.92,26.6-10.9,52.6s5.89,10.14,22.41,23.07,78.56,19.08,98.65,20,140.12-.38,162.75,16.31c60.74,44.84,215.1,16.13,273.41.67C651.09,714.58,691.34,714,691.34,714Z"/><path class="cls-2" d="M697.16,700.35,692.63,718s-11.88-53.3-107.79-85.79c0,0-148.18-52.3-274.15-5.33-30.59,21.87-212.41,5.94-253,29.72,0,0-43.79,14.45-44.44,52.18-.43-1.76-4.49-24.27-4.49-24.27C24,649,66.23,637.16,66.23,637.16c72.6-27.29,154.17,2.51,237.74-28.92C480.88,541.7,688.39,638.68,697.16,700.35Z"/><path class="cls-3" d="M347.5,901.39s-110.85-4.19-164.81-185C126.14,527,231.78,472.87,231.78,472.87S97.09,524.45,45.17,588.38c-30.59,37.67-91,160.25,62.24,264.15C225.12,932.34,347.5,901.39,347.5,901.39Z"/><path class="cls-4" d="M308.54,900.86s-104.22,7.33-158.18-173.45C93.82,538,178.27,497.27,178.27,497.27s-81.18,27.18-133.1,91.11C14.58,626.05-46.23,747.22,107,851.12,224.72,930.93,308.54,900.86,308.54,900.86Z"/><path class="cls-6" d="M644.36,822.67S580.93,840.25,472,686.23c-114.16-161.41-60.65-226.69-60.65-226.69s-67.88,67.66-79.56,133.32c-6.89,38.68,44.28,107.92,155.53,228.88C561,901.81,644.36,822.67,644.36,822.67Z"/><path class="cls-5" d="M16.23,746.54c82.51,275.19,681.29,138.63,681.39,5.19"/><path class="cls-5" d="M16.31,746.89c-35.92-151.62,212.86-77.64,298.88-121.8C406.64,578.15,704,612,697.62,751.73"/><path class="cls-5" d="M13.27,708.8C-59.6,417,785.06,439.84,692.63,718"/><path class="cls-1" d="M952.18,810.54l-6.51,24.67s-1.74,30-72.71,10.53a886.54,886.54,0,0,1-128.33-46.57s-94.57-43.45-131.77-67-79.57-43.3-104.49-68.87c0,0-151.86-86.29-153.54-171.19,0,0,1.67-13.06,16.72-34.36s30.3-19.76,51.1-22.41,77.26,23.82,95,33.35S637.79,540.72,665.78,538c75.13-7.42,193,96.25,235.22,139.38C962.51,740.2,952.18,810.54,952.18,810.54Z"/><path class="cls-1" d="M953.1,806.43l11.95-8.82s55.49-40,11.39-145.48c0,0-46.32-77-85.46-111.16s-90.83-75-129.38-96.34-77.89-43.86-112.29-53.44c0,0-124-62.49-229.39-2.8,0,0-24.64,16.35-36.1,39.78s-.06,11.73,7.6,31.25,58,56.33,74.87,67.28,120.92,70.79,131.93,96.67c29.58,69.46,177.14,123.09,235.23,139.37C918.14,786.49,953.1,806.43,953.1,806.43Z"/><path class="cls-2" d="M965.05,797.61l-12.87,12.93S969,758.59,902.86,681.91c0,0-101.11-120.29-233.48-143.77-37.47,3.32-186-102.71-233-102.82,0,0-45.07-9.78-64.78,22.4.52-1.74,8.45-23.19,8.45-23.19,31.09-22.89,73.54-11.65,73.54-11.65,76.4,13.35,131.55,80.43,219.51,95.77C859.26,551.13,988.8,740,965.05,797.61Z"/><path class="cls-3" d="M939.37,842.11s-68.92,30-322.27-118.51C351.59,568,354.94,491.74,354.94,491.74s-17.26,80.71,26.19,151.78c25.6,41.87,126.34,168.79,351.39,222.17C905.39,906.7,939.37,842.11,939.37,842.11Z"/><path class="cls-5" d="M354.94,491.74c-68.62,279,516.6,465.29,584.43,350.37"/><path class="cls-6" d="M419.92,388.39s-111.38,46.86,37,193.37c140.67,138.91,82.31,207.3,82.31,207.3s60.46,30.57,53-87.22c-6.82-107-55-189.62-106.44-242.3C409.72,381.7,419.92,388.39,419.92,388.39Z"/><path class="cls-5" d="M354.83,492.08c46-148.87,222.81,41.16,319.34,46.79,102.61,6,341.6,186,265.2,303.24"/><path class="cls-5" d="M371.55,457.72C456.88,169.34,1173,617.79,952.18,810.54"/><path class="cls-4" d="M921.61,856.58s-58.89,33.84-312.24-114.64C343.86,586.34,349.62,527.67,349.62,527.67s-13.9,43.61,29.55,114.69c25.6,41.87,126.34,168.79,351.39,222.17C903.43,905.54,921.61,856.58,921.61,856.58Z"/><path class="cls-1" d="M490.23,858.56l8.17,24.17s39.79,26.19,65.27,33.78c29.14,8.69,127.12-15.12,127.12-15.12s103.53-28.55,139-54.62,149.93-101.46,173-128.67c0,0,92.67-97.78,61.54-218.09,0,0-2.55-12.92-19-33.14s-31.59-17.64-52.52-18.86-75.45,29-92.47,39.77-115,80.1-143.07,79.25c-75.46-2.27-186,109.22-225.15,155.13C475.11,789.1,490.23,858.56,490.23,858.56Z"/><path class="cls-1" d="M489,854.52l-12.53-8s-58.1-36.12-21.31-144.37c0,0,40.95-80,77.66-116.74s85.49-81.08,122.49-105,74.72-49.09,108.37-61c0,0,119.45-70.82,228.67-18.48,0,0,25.7,14.63,38.73,37.22s.87,11.7-5.44,31.7-54,60.16-70.1,72.24-115.79,78.89-125,105.46C805.8,719,662.25,782.54,605.41,802.76,522.54,832.24,489,854.52,489,854.52Z"/><path class="cls-2" d="M476.5,846.55l13.73,12s-20.35-50.68,40.41-131.7c0,0,92.65-126.92,223.1-159.39,37.61.75,178.57-115.19,225.48-118.52,0,0,44.29-12.83,66.16,17.92-.64-1.7-10-22.56-10-22.56-32.58-20.7-74.17-6.59-74.17-6.59C885.88,456.26,835.45,527,748.74,548.27,565.19,593.41,448.87,790.72,476.5,846.55Z"/><path class="cls-3" d="M495.71,631.89S474.36,759.81,638.3,803.3c69.47,18.42,245,19.33,245,19.33s-46.18,8.94-94,45.31c-28.17,21.43-244.28,80.75-289.85,13C447.7,804,495.71,631.89,495.71,631.89Z"/><path class="cls-4" d="M456.14,735.57s15.69,78.95,183.3,103.37c175.64,25.6,210.24,2.84,210.24,2.84S772.31,868,726.28,891c-31.09,15.55-137.47,36.33-200.83,12.66C469.62,882.85,456.14,735.57,456.14,735.57Z"/><path class="cls-5" d="M1064.27,499.67c87.53,273.64-483.58,499.53-559.1,389.51"/><path class="cls-5" d="M1064.4,500c-56.08-145.37-219.47,56.3-315.39,68.51-102,13-328.08,209-243.84,320.66"/><path class="cls-5" d="M1045.38,466.87C940.53,185,256.71,681.36,490.23,858.56"/><path class="cls-1" d="M466.47,865.43l-16,19.9s-13.77,26.75-70.73-19.87a886,886,0,0,1-98.4-94.64s-68.81-78.07-93.24-114.72S133,584.24,120.59,550.76c0,0-103.79-140.49-70.88-218.77,0,0,6.83-11.26,29.22-24.63s35.72-5.75,55.8.26,61,53.12,73.27,69,80.6,114.62,107.3,123.44c71.68,23.7,137.39,166.3,158.44,222.83C504.44,805.33,466.47,865.43,466.47,865.43Z"/><path class="cls-1" d="M469,862.05l14.5-3.21s66.95-14.05,69.43-128.35c0,0-11.1-89.14-33-136.27s-52.57-105.45-79.16-140.56-53.4-71.69-80.95-94.4c0,0-88-107.42-208.53-95.63,0,0-29.15,4.95-49.13,21.71S97.32,296,96.41,317s30.15,75,41.13,91.87,81.79,113.76,81.36,141.88c-1.15,75.49,112,184.38,158.44,222.83C445.11,829.63,469,862.05,469,862.05Z"/><path class="cls-2" d="M483.48,858.84l-17,6.59s36.46-40.66,7.11-137.58c0,0-43.61-151-155.07-226.13-35.58-12.17-128.34-169.36-171.28-188.54,0,0-37.22-27.23-68.3-5.82C80.12,306,96.07,289.6,96.07,289.6c37.7-8.3,71.94,19.19,71.94,19.19,64.42,43.2,87.6,126.89,161.77,176.6C486.79,590.63,528.55,815.84,483.48,858.84Z"/><path class="cls-3" d="M442,889.09S366.8,888.52,195.48,650C16,400.07,50,331.72,50,331.72S1.43,398.48,12.3,481.08c6.41,48.65,47,205.53,231,345.64C384.69,934.34,442,889.09,442,889.09Z"/><path class="cls-5" d="M50,331.72C-126,558.87,333.32,966.6,442,889.09"/><path class="cls-5" d="M49.71,332c102.46-117.39,187,128,272.89,172.34C414,551.43,559.33,813,442,889.09"/><path class="cls-5" d="M78.93,307.36c195-228.94,667.6,471.51,387.54,558.07"/><path class="cls-4" d="M419.84,895.11s-67.55,7-238.87-231.47C1.44,413.7,30.51,362.4,30.51,362.4S.11,396.63,11,479.22c6.41,48.65,47,205.53,231,345.64C383.37,932.48,419.84,895.11,419.84,895.11Z"/></svg>