<svg id="Layer_1" data-name="Layer 1" xmlns="http://www.w3.org/2000/svg" viewBox="0 0 1080 1080"><defs><style>.cls-1{fill:#fff;}.cls-2{fill:#50b2cc;}.cls-3{fill:#3a9bb5;}.cls-4{fill:#3a96a5;}.cls-5{fill:#7cc6e8;}.cls-6{fill:#7db6d8;}.cls-7{fill:#9fd7f2;}.cls-8{fill:#4ca2c9;}.cls-9{fill:#77cbef;}.cls-10{fill:#63b6d9;}.cls-11{fill:#b7e1f4;}.cls-12,.cls-13{fill:none;stroke:red;}.cls-12{stroke-miterlimit:10;stroke-width:48px;}.cls-13{stroke-linecap:round;stroke-linejoin:round;stroke-width:65px;}</style></defs><title>without milk</title><polygon class="cls-1" points="893.48 1080 186.53 1080 186.53 251.74 286.96 36.77 286.96 0 762.08 0 762.08 36.77 893.48 251.74 893.48 1080"/><polygon class="cls-2" points="893.48 251.74 730.2 251.74 732.95 100.13 762.08 36.77 893.48 251.74"/><polygon class="cls-3" points="658.95 251.74 893.48 251.74 736.03 221.24 736.03 221.24 658.95 251.74"/><polygon class="cls-4" points="663.24 251.74 736.03 221.24 757.22 47.36 732.95 100.13 663.24 251.74"/><path class="cls-5" d="M215.11,1040.57l-.17-346.32c1.6,2.43,3.11,4.91,4.53,7.4,16.18,28.72,23.91,65.24,51.82,85.67,13.47,9.86,32,13.55,48.44,11.18,15-2.18,26.49-12.45,35.08-24.28,19.94-27.41,26.56-64.6,52.42-87.73,14.18-12.69,32.64-14.18,50.48-9.57a106.55,106.55,0,0,1,35.62,16.46c10.83,7.86,20.06,17.77,30,26.67,7.46,6.66,15.81,13.57,25.79,15.76,9.53,2.08,17.85-3,24.11-9.69,10.16-10.88,18.07-27,20-41.76,2-15.19-3.91-30.43-9.5-44.22-4.83-11.9-10-23.62-13.26-36.08-3.41-13.08-3.36-27.12-2.15-40.51a107.71,107.71,0,0,1,27.87-63.62c10.94-11.86,24.19-20.79,38.67-27.37V1041l-448.31-.44V1080H663.24V327.22l-28.4-59L186.53,251.74v788.8ZM612.29,449.06A11.66,11.66,0,1,1,624,437.39,11.66,11.66,0,0,1,612.29,449.06Zm31.58-115.38a6.44,6.44,0,1,1-6.43,6.43A6.44,6.44,0,0,1,643.87,333.68ZM631,407.57a6.45,6.45,0,1,1-6.45,6.45A6.45,6.45,0,0,1,631,407.57ZM624,379a11.66,11.66,0,1,1-11.66-11.65A11.67,11.67,0,0,1,624,379Zm-18.1-58.23a6.45,6.45,0,1,1-6.45,6.44A6.45,6.45,0,0,1,605.85,320.78ZM570.2,407.57a6.45,6.45,0,1,1-6.45,6.45A6.44,6.44,0,0,1,570.2,407.57ZM467.24,384c.06-15.28,20.49-15.26,20.43,0-.09,24.63-1.16,49.24-2.25,73.86,14.27-29.07,31.22-56.88,43.29-86.68,5.6-13.81,23.21-1.77,17.65,12-8.84,21.83-20.54,42.61-31.75,63.65,14.31,20.44,26.36,42.86,42,62.07,9,11.1-5.4,27.89-14.44,16.76-14.42-17.72-25.77-38.13-38.65-57.22C494.88,486,487.37,504,482.84,523.33c-3,12.88-20.32,10.26-20.09-3.15C463.56,474.77,467.06,429.42,467.24,384Zm-42.37,0c.75-15.2,21.19-15.25,20.45,0-2.22,45.35-3.52,90.76-4.54,136.17-.35,15.25-20.8,15.26-20.45,0C421.35,474.77,422.66,429.36,424.87,384Zm-32-11.23c6,0,10.9,6,10.9,13.3s-4.87,13.3-10.9,13.3-10.91-6-10.91-13.3S386.81,372.78,392.83,372.78ZM381.53,425c0-15.28,20.44-15.28,20.44,0v95.72c0,15.29-20.44,15.29-20.44,0ZM219.05,440.54c10.3-14.67,24.52-78.64,49.68-64.48,8.68,4.89,11.62,20.11,12.72,34.46a177.94,177.94,0,0,1,14.79-29.08c4.88-7.63,16.46-8,18.69,2.83a234.91,234.91,0,0,1,3.84,27c5.88-13.3,13.66-25.14,24.48-34.12,5.09-4.23,13.9-.05,15,7.08,6.44,41.07,1.83,82.3,3.75,123.6,9.58-8,22.62,7.76,13.32,17.76-12.87,13.87-31.16,7.5-33.52-12.52-3.89-33.24.65-66.63-1-100-14.3,24.2-17.66,60.31-21.92,86.77-2.16,13.44-20.18,9.85-20.09-3.15.17-24.66,1.84-49.54.42-74.14-11.9,30.54-15.88,64.17-19.38,98.06-1.52,14.74-20.58,15.65-20.44,0,.19-20.52,1.61-41,2.25-61.47.31-10.12.55-20.28.08-30.4-.23-5.25-2.81-14.53-3.55-21.66-2.76,5.55-5,11.46-7.48,17.2-5,11.7-10.06,22.82-17.19,33C225.19,469.14,210.8,452.27,219.05,440.54Z"/><rect class="cls-6" x="876.61" y="449.06" width="16.86" height="630.94"/><path class="cls-6" d="M663.24,1080H893.47v-39H685.6V472.8c17.91,1.23,34.8,7.37,48.12,20.74,11.4,11.44,18.49,26.35,23.16,41.84l.47-41.36h0v0h0v-.27h0a9.73,9.73,0,0,1,1.36-4.6,16.53,16.53,0,0,1,3.52-4,44.66,44.66,0,0,1,11.93-6.67c10-4.08,24.19-7.62,41.69-10.59,21.45-3.62,47.91-6.36,77.58-7.94V251.74H663.24V1080Z"/><path class="cls-7" d="M740.29,47.36,287,36.77h-1.6l-98.83,215H663.24l98.84-215-16.57,36ZM226.3,224.1,316.19,56h86.25L520.57,224.1ZM577.74,167c-25.53,0-46.24-21.08-46.24-47.09s20.71-47.09,46.24-47.09S624,93.86,624,119.87,603.28,167,577.74,167Z"/><polyline class="cls-8" points="893.48 251.74 806.49 109.43 762.08 36.77"/><polygon class="cls-9" points="473.29 0 286.96 0 286.96 36.77 762.08 36.77 762.08 0 473.29 0"/><path class="cls-10" d="M624,119.87c0-26-20.69-47.09-46.23-47.09S531.5,93.86,531.5,119.87,552.21,167,577.74,167,624,145.88,624,119.87Z"/><polygon class="cls-11" points="316.19 55.97 226.3 224.1 520.57 224.1 402.44 55.97 316.19 55.97"/><path class="cls-10" d="M624,437.39a11.66,11.66,0,0,0-23.32,0"/><path class="cls-1" d="M340.8,413.13c1.67,33.35-2.87,66.74,1,100"/><path class="cls-1" d="M424.87,384c-2.21,45.35-3.52,90.76-4.54,136.17"/><path class="cls-1" d="M467.24,384c-.18,45.41-3.68,90.76-4.49,136.17"/><path class="cls-1" d="M392.83,399.38c6,0,10.9-6,10.9-13.3s-4.87-13.3-10.9-13.3"/><circle class="cls-12" cx="540.18" cy="540.2" r="291.03"/><line class="cls-13" x1="393.11" y1="375.74" x2="687.24" y2="704.67"/><line class="cls-13" x1="698.34" y1="386.39" x2="382.01" y2="694.02"/></svg>