<svg id="Layer_1" data-name="Layer 1" xmlns="http://www.w3.org/2000/svg" viewBox="0 0 1080 1920"><defs><style>.cls-1{fill:#f9dbb4;stroke:#f9dbb4;stroke-linejoin:round;}.cls-1,.cls-2,.cls-3{stroke-linecap:round;stroke-width:12px;}.cls-2,.cls-3{stroke:#000;stroke-miterlimit:10;}.cls-3{fill:none;}</style></defs><title>extra sugar</title><path class="cls-1" d="M463.27,1148,389.5,804.66s68.9-18.23,150.37.43c81.13,18.57,150.38-.43,150.38-.43L615.8,1147.21"/><path class="cls-2" d="M609.46,1153.6l-139.58,1.29c-3.44,0-6.42-3.72-7.12-9l-14.16-66.21s32.22-12.75,91,8c40.93,14.45,89.3-1,89.3-1l-12.45,58C615.79,1149.86,612.86,1153.57,609.46,1153.6Z"/><path class="cls-3" d="M621.92,1180.22H455.42A11.72,11.72,0,0,1,444,1171L353.56,753.68A11.71,11.71,0,0,1,365,739.49H714.74a11.71,11.71,0,0,1,11.45,14.19l-89.91,415A14.69,14.69,0,0,1,621.92,1180.22Z"/></svg>