<svg id="Layer_1" data-name="Layer 1" xmlns="http://www.w3.org/2000/svg" viewBox="0 0 1080 1080"><defs><style>.cls-1{fill:#f9dbb4;stroke:#f9dbb4;stroke-linejoin:round;}.cls-1,.cls-2,.cls-3{stroke-linecap:round;}.cls-1,.cls-2{stroke-width:12px;}.cls-2,.cls-3{stroke:#000;stroke-miterlimit:10;}.cls-3{fill:none;stroke-width:32px;}</style></defs><title>extra sugar</title><path class="cls-1" d="M357.92,987.09l-175.34-816s163.78-43.32,357.42,1c192.82,44.15,357.42-1,357.42-1L720.47,985.34"/><path class="cls-2" d="M705.41,1000.51l-331.76,3.07c-8.18.08-15.26-8.83-16.94-21.31L323.06,824.88S399.64,794.57,539.48,844c97.27,34.35,212.25-2.45,212.25-2.45l-29.6,137.81C720.44,991.62,713.48,1000.44,705.41,1000.51Z"/><path class="cls-3" d="M735,1063.78H339.26a27.83,27.83,0,0,1-27.2-21.94L97.15,50a27.84,27.84,0,0,1,27.21-33.73H955.64A27.84,27.84,0,0,1,982.85,50l-213.69,986.3A34.94,34.94,0,0,1,735,1063.78Z"/></svg>