<svg id="Layer_1" data-name="Layer 1" xmlns="http://www.w3.org/2000/svg" viewBox="0 0 1080 1920"><defs><style>.cls-1{fill:#f9dbb4;stroke:#f9dbb4;stroke-linejoin:round;}.cls-1,.cls-2,.cls-3{stroke-linecap:round;stroke-width:12px;}.cls-2,.cls-3{stroke:#000;stroke-miterlimit:10;}.cls-3{fill:none;}</style></defs><title>less sugar</title><path class="cls-1" d="M462.48,1147.26,389.63,804.81s68.9-18.23,150.37.42c81.12,18.58,150.37-.42,150.37-.42l-73.74,343.57"/><path class="cls-2" d="M608.8,1154.62l-138.21.31c-3.4,0-6.35-.89-7-2.14l-3.13-14.35s40.56-4.21,79.59,2.71c33.44,5.92,79-3.71,79-3.71l-3.22,15C615.06,1153.73,612.16,1154.62,608.8,1154.62Z"/><path class="cls-3" d="M622.05,1180.37H455.54a11.71,11.71,0,0,1-11.44-9.24L353.69,753.82a11.7,11.7,0,0,1,11.44-14.19H714.87a11.7,11.7,0,0,1,11.44,14.19l-89.9,415A14.69,14.69,0,0,1,622.05,1180.37Z"/></svg>