<svg id="Layer_1" data-name="Layer 1" xmlns="http://www.w3.org/2000/svg" viewBox="0 0 1080 1080"><defs><style>.cls-1,.cls-2{fill:#f9dbb4;stroke:#f9dbb4;}.cls-1,.cls-2,.cls-3,.cls-4{stroke-linecap:round;}.cls-1{stroke-linejoin:round;}.cls-1,.cls-2,.cls-3{stroke-width:12px;}.cls-2,.cls-3,.cls-4{stroke-miterlimit:10;}.cls-3,.cls-4{stroke:#000;}.cls-4{fill:none;stroke-width:32px;}</style></defs><title>less sugar</title><path class="cls-1" d="M355.68,985.26,182.45,171S346.29,127.66,540,172c192.89,44.16,357.55-1,357.55-1L722.2,987.92"/><path class="cls-1" d="M355.09,984.64,182,171s163.71-43.31,357.28,1c192.74,44.12,357.28-1,357.28-1L721.33,987.3"/><path class="cls-2" d="M704.61,1001.39,373,1003.11c-8.18,0-15.26-5-16.94-12L338.36,906s35.39-11.66,200.38,7.51c130.37,15.14,198.1,1.49,198.1,1.49l-15.51,74.48C719.63,996.4,712.68,1001.35,704.61,1001.39Z"/><path class="cls-3" d="M703.58,1002.76,375,1003.5c-8.1,0-15.11-2.12-16.78-5.11l-7.44-34.11s96.45-10,189.25,6.44c79.52,14.09,187.78-8.82,187.78-8.82l-7.64,35.78C718.46,1000.63,711.57,1002.74,703.58,1002.76Z"/><path class="cls-4" d="M735.09,1064H339.19A27.85,27.85,0,0,1,312,1042L97,49.77A27.84,27.84,0,0,1,124.21,16H955.79A27.84,27.84,0,0,1,983,49.77L769.24,1036.42A34.94,34.94,0,0,1,735.09,1064Z"/></svg>