<svg id="Layer_1" data-name="Layer 1" xmlns="http://www.w3.org/2000/svg" viewBox="0 0 1080 1080"><defs><style>.cls-1,.cls-2{fill:#f9dbb4;stroke:#f9dbb4;}.cls-1,.cls-2,.cls-3,.cls-4{stroke-linecap:round;}.cls-1{stroke-linejoin:round;}.cls-1,.cls-2,.cls-3{stroke-width:12px;}.cls-2,.cls-3,.cls-4{stroke-miterlimit:10;}.cls-3,.cls-4{stroke:#000;}.cls-4{fill:none;stroke-width:32px;}</style></defs><title>more sugar</title><path class="cls-1" d="M355.82,986.83,182.72,173.17s163.71-43.3,357.28,1c192.75,44.13,357.28-1,357.28-1L722.06,989.49"/><path class="cls-2" d="M705.35,1003.58l-331.64,1.72c-8.17,0-15.25-5-16.93-12L339.09,908.2s35.39-11.66,200.39,7.51c130.37,15.14,198.1,1.49,198.1,1.49l-15.52,74.48C720.37,998.59,713.42,1003.54,705.35,1003.58Z"/><path class="cls-3" d="M706.2,1003.51,372.93,1006c-8.22.06-15.33-7.07-17-17.06l-25.7-122.47s68.83-27.84,209.3,11.7c97.71,27.51,206,2.11,206,2.11L723,986.53C721.29,996.38,714.31,1003.45,706.2,1003.51Z"/><path class="cls-4" d="M735.47,1065H338.79a27.91,27.91,0,0,1-27.27-22L96.12,48.81A27.9,27.9,0,0,1,123.39,15H956.61a27.9,27.9,0,0,1,27.27,33.81L769.69,1037.4A35,35,0,0,1,735.47,1065Z"/></svg>