<svg id="Layer_1" data-name="Layer 1" xmlns="http://www.w3.org/2000/svg" viewBox="0 0 1080 1920"><defs><style>.cls-1{fill:#f9dbb4;stroke:#f9dbb4;stroke-linejoin:round;}.cls-1,.cls-2,.cls-3{stroke-linecap:round;stroke-width:12px;}.cls-2,.cls-3{stroke:#000;stroke-miterlimit:10;}.cls-3{fill:none;}</style></defs><title>more sugar</title><path class="cls-1" d="M462,1143.78,389.63,804.66s68.9-18.23,150.37.43c81.12,18.57,150.37-.43,150.37-.43l-73.53,341"/><path class="cls-2" d="M609.59,1153.84,470,1154.89c-3.44,0-6.42-3-7.13-7.26l-11.33-51.89s29.4-12,88.23,4.8c40.92,11.69,86.75.19,86.75.19l-9.9,45.9C615.91,1150.82,613,1153.82,609.59,1153.84Z"/><path class="cls-3" d="M622.05,1180.22H455.54A11.72,11.72,0,0,1,444.1,1171L353.69,753.68a11.7,11.7,0,0,1,11.44-14.19H714.87a11.7,11.7,0,0,1,11.44,14.19l-89.9,415A14.69,14.69,0,0,1,622.05,1180.22Z"/></svg>