<svg id="Layer_1" data-name="Layer 1" xmlns="http://www.w3.org/2000/svg" viewBox="0 0 1080 1920"><defs><style>.cls-1{fill:#f9dbb4;stroke:#f9dbb4;stroke-linejoin:round;}.cls-1,.cls-2,.cls-3{stroke-linecap:round;stroke-width:12px;}.cls-2,.cls-3{stroke:#000;stroke-miterlimit:10;}.cls-3{fill:none;}</style></defs><title>normal sugar</title><path class="cls-1" d="M462.48,1147.26,389.63,804.81s68.9-18.23,150.37.42c81.12,18.58,150.37-.42,150.37-.42l-73.74,343.57"/><path class="cls-2" d="M609.59,1154.31,470,1155c-3.44,0-6.42-2.09-7.13-5l-7.44-35.84s25.51-8.51,84.34,3.16c40.92,8.11,83.38.63,83.38.63l-6.53,31.35A7.08,7.08,0,0,1,609.59,1154.31Z"/><path class="cls-3" d="M622.05,1180.37H455.54a11.71,11.71,0,0,1-11.44-9.24L353.69,753.82a11.7,11.7,0,0,1,11.44-14.19H714.87a11.7,11.7,0,0,1,11.44,14.19l-89.9,415A14.69,14.69,0,0,1,622.05,1180.37Z"/></svg>