<svg id="Layer_1" data-name="Layer 1" xmlns="http://www.w3.org/2000/svg" viewBox="0 0 1080 1080"><defs><style>.cls-1{fill:#f9dbb4;stroke:#f9dbb4;stroke-linejoin:round;}.cls-1,.cls-2,.cls-3{stroke-linecap:round;}.cls-1,.cls-2{stroke-width:12px;}.cls-2,.cls-3{stroke:#000;stroke-miterlimit:10;}.cls-3{fill:none;stroke-width:32px;}</style></defs><title>normal sugar</title><path class="cls-1" d="M355.53,985.63,182.15,170.69s164-43.37,357.85,1c193,44.2,357.85-1,357.85-1L722.35,988.3"/><path class="cls-2" d="M705.61,1002.41l-332.16,1.73c-8.19,0-15.28-5-17-12l-17.72-85.28s60.71-20.24,200.71,7.52c97.38,19.31,198.41,1.5,198.41,1.5l-15.54,74.59C720.65,997.41,713.69,1002.37,705.61,1002.41Z"/><path class="cls-3" d="M735.25,1064.41H339a27.87,27.87,0,0,1-27.24-22L96.62,49.36a27.87,27.87,0,0,1,27.24-33.77H956.14a27.87,27.87,0,0,1,27.24,33.77l-214,987.48A35,35,0,0,1,735.25,1064.41Z"/></svg>