<svg id="Layer_1" data-name="Layer 1" xmlns="http://www.w3.org/2000/svg" viewBox="0 0 1080 1920"><defs><style>.cls-1,.cls-2{fill:#f9dbb4;stroke:#f9dbb4;}.cls-1,.cls-2,.cls-3{stroke-linecap:round;stroke-width:12px;}.cls-1{stroke-linejoin:round;}.cls-2,.cls-3{stroke-miterlimit:10;}.cls-3{fill:none;stroke:#000;}</style></defs><title>no sugar</title><path class="cls-1" d="M461.78,1147.26,388.93,804.81s68.9-18.23,150.37.42c81.12,18.58,150.37-.42,150.37-.42l-73.74,343.57"/><path class="cls-2" d="M608.89,1154.31l-139.58.73c-3.44,0-6.42-2.09-7.13-5l-7.44-35.84s14.9-4.91,84.34,3.16c54.87,6.37,83.38.63,83.38.63l-6.53,31.35A7.08,7.08,0,0,1,608.89,1154.31Z"/><path class="cls-3" d="M622.05,1180.37H455.54a11.71,11.71,0,0,1-11.44-9.24L353.69,753.82a11.7,11.7,0,0,1,11.44-14.19H714.87a11.7,11.7,0,0,1,11.44,14.19l-89.9,415A14.69,14.69,0,0,1,622.05,1180.37Z"/></svg>