<svg id="Layer_1" data-name="Layer 1" xmlns="http://www.w3.org/2000/svg" viewBox="0 0 1080 1080"><defs><style>.cls-1,.cls-2{fill:#f9dbb4;stroke:#f9dbb4;stroke-width:12px;}.cls-1,.cls-2,.cls-3{stroke-linecap:round;}.cls-1{stroke-linejoin:round;}.cls-2,.cls-3{stroke-miterlimit:10;}.cls-3{fill:none;stroke:#000;stroke-width:32px;}</style></defs><title>no sugar</title><path class="cls-1" d="M354.15,984.93,181.05,171.27s163.72-43.3,357.28,1c192.75,44.12,357.29-1,357.29-1L720.39,987.59"/><path class="cls-2" d="M703.68,1001.68l-331.63,1.72c-8.18.05-15.26-4.95-16.94-12L337.43,906.3s35.39-11.66,200.38,7.51c130.37,15.14,198.1,1.49,198.1,1.49l-15.52,74.48C718.7,996.69,711.75,1001.64,703.68,1001.68Z"/><path class="cls-3" d="M734.94,1063.58H339.34a27.83,27.83,0,0,1-27.2-21.93L97.33,50.14a27.82,27.82,0,0,1,27.19-33.72h831a27.82,27.82,0,0,1,27.19,33.72l-213.6,985.91A34.92,34.92,0,0,1,734.94,1063.58Z"/></svg>